<svg width="190" height="150" xmlns="http://www.w3.org/2000/svg" xmlns:svg="http://www.w3.org/2000/svg" xmlns:xlink="http://www.w3.org/1999/xlink">
 <!-- Created with SVG-edit - http://svg-edit.googlecode.com/ -->
 <title>brain_outline</title>
 <defs>
  <symbol id="svg_22" xmlns:svg="http://www.w3.org/2000/svg" xmlns="http://www.w3.org/2000/svg">
   <metadata id="svg_21">image/svg+xml</metadata>
   <g id="svg_2">
    <g id="svg_17">
     <path id="svg_20" d="m12.95768,61.51022c0.54044,8.20426 21.1448,16.27863 32.9441,-2.26096" stroke-dashoffset="0" stroke-miterlimit="4" stroke-width="1.8125" stroke="#000000" fill="none"/>
     <path d="m68.13506,47.01606c4.84879,1.62397 23.34152,0.73806 27.65913,-8.24284c7.87734,-16.38537 -5.81065,-37.96254 -53.43261,-33.48194c-39.29075,3.69674 -41.0184,42.04343 -40.05993,47.50722c0.95846,5.46379 6.92838,9.12051 10.49799,8.90869c3.56962,-0.21181 8.10924,-3.13315 16.53902,-4.35954c14.18554,-2.06375 32.278,10.57469 39.14701,-4.91728c1.61634,-3.64541 -2.82227,-10.33999 -7.29297,-12.96852" id="svg_19" stroke-dashoffset="0" stroke-miterlimit="4" stroke-width="1.8125" stroke="#000000" fill="none"/>
     <path id="svg_18" d="m25.71429,47.14283c0.89285,1.60714 2.85714,4.01785 9.01785,4.10714m19.03676,-31.05369c5.72267,5.85077 3.2471,11.07626 1.16674,12.95575m-3.86159,-20.15475c4.38816,2.94848 3.48599,9.77979 -0.36374,10.58305m-26.9979,34.84425c3.82383,-2.1977 4.64217,-5.23183 4.96377,-8.22908m32.49507,-10.35023c-2.78843,-1.63945 -7.89053,-2.96679 -12.36829,-2.02664c-2.79424,-4.18461 -10.27134,-1.92751 -10.65274,2.785m-1.31662,-7.90228c5.64592,-4.21199 4.35978,-12.96351 -6.5238,-14.98984m3.56007,8.00215c0.11218,4.2991 3.65982,8.60254 6.59495,10.79565m2.45372,21.72164c4.06551,-2.24226 5.33461,-8.22619 4.99163,-9.71553m-11.95355,14.2664c-0.99922,2.35511 -2.52286,5.33934 -6.13487,7.62169m0.55312,-6.91975c-1.89649,2.36369 -3.59447,4.33728 -7.99083,6.16034m-5.80838,-2.58117c5.60237,-1.33295 9.25678,-5.68583 7.81495,-4.09058m-2.96363,-35.6247c-0.32764,8.47912 5.09458,5.46944 6.09204,13.7559m1.59685,-12.44339c1.06967,-3.35087 -5.60805,-14.06513 -10.23493,-4.3484c-8.75968,2.63874 -8.26707,7.63489 0.65976,12.0452m7.7176,-26.8527c5.21811,-0.8481 8.27451,2.47296 8.69788,4.34107c6.00371,2.3103 12.54385,1.43702 10.33686,18.09714m34.7182,-6.94867c5.17021,6.73583 1.49178,17.87063 -4.93722,22.27307m-15.09223,-7.66639c3.49406,-2.53888 3.66753,-9.62745 3.66753,-9.62745m-54.8613,14.10022c-3.42872,-1.7797 -3.58914,-3.8216 -5.25763,-9.20753m-1.11115,20.23084c4.20872,-5.8508 9.72756,-1.69099 12.53799,-8.82559c2.81043,-7.1346 -1.68334,-8.79749 -4.6815,-8.28906m5.66734,22.19303c-2.53194,-8.34516 2.82989,-6.95709 3.1506,-10.5851c0.3207,-3.62802 1.41214,-8.4184 6.97327,-8.48933c5.56112,-0.0709 2.63904,3.07587 7.75195,3.72437c3.16867,0.40191 5.04154,-2.66112 8.61709,-0.18282m25.79703,-22.54622c2.40607,-2.5631 6.51728,-3.73468 10.09373,-3.7676c4.83163,-0.17057 9.53989,2.69412 9.622,9.15223c0,0 6.38013,-0.32822 8.22718,5.91349m-51.42076,-20.73594c0,0 -0.98304,-3.64239 4.55299,-3.99452c3.74126,-0.23797 6.68733,1.14004 8.55553,3.94438c3.85946,-1.65312 6.98543,-0.77351 10.30737,2.64905c2.08327,-2.39438 10.83907,-4.57695 17.28413,-3.07711m-17.02473,25.35278c12.66142,-0.84958 7.9277,-11.17062 2.12399,-11.67366c-1.0336,-5.08624 -6.33446,-4.86575 -8.1698,-4.30013c-0.70854,-1.82769 -1.77986,-3.48857 -4.03751,-4.38422m2.81393,35.97566c0,0 -2.37968,-4.49954 -6.5511,-4.04209c-3.81561,-9.13332 -15.49454,-7.18022 -15.81455,3.72915m43.26318,-16.2527c3.35815,1.66414 6.90378,-0.37534 8.71935,-2.35281" stroke-dashoffset="0" stroke-miterlimit="4" stroke="#000000" fill="none"/>
    </g>
   </g>
  </symbol>
  <pattern height="100" width="100" y="0" x="0" patternUnits="userSpaceOnUse" id="gridpattern">
   <image height="100" width="100" y="0" x="0" id="svg_1"/>
  </pattern>
  <pattern id="gridpattern" patternUnits="userSpaceOnUse" x="0" y="0" width="100" height="100">
   <image id="svg_3" x="0" y="0" width="100" height="100"/>
  </pattern>
 </defs>
 <g>
  <title>Layer 1</title>
  <use id="svg_23" xlink:href="#svg_22" transform="matrix(1.8358368193482875,0,0,2.144088014127135,-57.01313332590507,-145.77236251844442) " y="65.747269" x="32.462148" fill="#ffffff"/>
  <g id="svg_24"/>
  <path fill="none" stroke="#000000" stroke-width="5" id="svg_25" d="m502,1186.36218c-1.84668,0.01062 -2.69507,0.04736 -3.69733,0.28931c-0.64096,0.15466 -1.43784,0.42786 -1.92166,0.58667c-1.88293,0.61816 -2.6749,0.88843 -3.55167,1.1814c-0.95291,0.31836 -1.97488,0.66064 -3.0585,1.026c-1.13907,0.38403 -2.32626,0.78564 -3.5535,1.20593c-2.55188,0.8739 -3.8609,1.32983 -5.18533,1.79736c-1.33826,0.47241 -2.6843,0.95557 -4.03201,1.45496c-1.35098,0.50061 -2.69864,1.01001 -4.03201,1.54504c-2.64264,1.0603 -3.92819,1.62891 -5.20132,2.19995c-1.26859,0.56897 -2.52814,1.15698 -3.78751,1.755c-1.2673,0.60181 -2.5415,1.22046 -3.83249,1.84509c-2.64636,1.28052 -4.01089,1.93481 -5.39999,2.59998c-1.40924,0.6748 -2.83484,1.35693 -4.26752,2.05493c-1.44067,0.7019 -2.88318,1.41052 -4.3125,2.14502c-2.84311,1.46106 -4.22815,2.22559 -5.58932,3c-1.34583,0.76575 -2.65933,1.54846 -3.93149,2.35498c-1.2518,0.7937 -2.46649,1.59851 -3.61652,2.44507c-2.22668,1.63904 -3.2374,2.51831 -4.19867,3.40796c-0.94751,0.87695 -1.84,1.79761 -2.664,2.77197c-0.82715,0.97803 -1.60974,2.01416 -2.30399,3.13208c-1.44131,2.32092 -2.01974,3.64148 -2.60135,4.99463c-0.59473,1.38367 -1.1293,2.82031 -1.61548,4.29004c-0.48868,1.47717 -0.92865,2.97021 -1.30051,4.46997c-0.72772,2.93494 -0.97382,4.37952 -1.20267,5.78931c-0.22385,1.37915 -0.39944,2.73743 -0.53851,4.07397c-0.13675,1.31433 -0.23972,2.61206 -0.31348,3.89404c-0.14508,2.52161 -0.17325,3.76892 -0.20535,5.01331c-0.03226,1.25024 -0.05194,2.51465 -0.06448,3.80103c-0.01285,1.31628 -0.01761,2.67065 -0.0195,4.07104c-0.004,2.97058 -0.00134,4.55444 -0.00134,6.20129c0,1.70288 0,3.45471 0,5.24854c0,1.82874 0,3.68567 0,5.56348c0,3.79065 0,5.69031 0,7.58801c0,1.89368 0,3.78125 0,5.66101c0,1.86963 0,3.72729 0,5.57092c0,3.63733 0.00256,5.427 -0.004,7.1947c-0.00647,1.74365 -0.02011,3.46143 -0.0585,5.151c-0.03772,1.65991 -0.0882,3.28857 -0.19351,4.88098c-0.20374,3.08032 -0.39197,4.56067 -0.60397,6.00403c-0.20831,1.41833 -0.46405,2.81006 -0.76501,4.17749c-0.29919,1.35938 -0.63971,2.70752 -1.035,4.04248c-0.79916,2.6991 -1.29428,4.0448 -1.79599,5.40137c-0.50525,1.36609 -1.04379,2.72607 -1.60651,4.07703c-0.56134,1.34766 -1.14117,2.6792 -1.74149,3.98694c-1.17679,2.5636 -1.78821,3.79431 -2.40134,4.99731c-0.60434,1.18567 -1.22546,2.34546 -1.87802,3.474c-0.64893,1.12219 -1.32364,2.22729 -2.05798,3.29407c-1.48212,2.15308 -2.32977,3.18005 -3.20401,4.19727c-0.8815,1.02576 -1.81464,2.01904 -2.80051,2.96704c-0.98904,0.95105 -2.01889,1.86646 -3.11548,2.69702c-2.19104,1.65942 -3.39075,2.34448 -4.60269,2.99866c-1.22147,0.6593 -2.49872,1.25049 -3.82349,1.78345c-1.35144,0.54358 -2.76056,1.03674 -4.22849,1.46851c-3.06747,0.90222 -4.71136,1.2511 -6.41202,1.60266c-1.76535,0.36487 -3.61325,0.68896 -5.547,0.97058c-2.01831,0.29395 -4.13544,0.5509 -6.35699,0.74548c-4.76324,0.41711 -7.32379,0.50891 -9.97867,0.59998c-2.72986,0.09363 -5.51459,0.14197 -8.33099,0.15454c-2.82632,0.0127 -5.64105,-0.0061 -8.42102,-0.07056c-5.37155,-0.12463 -7.92212,-0.255 -10.37598,-0.40002c-2.36349,-0.13977 -4.63895,-0.31262 -6.828,-0.52942c-2.11234,-0.20911 -4.14969,-0.44727 -6.108,-0.75452c-3.73444,-0.58606 -5.50024,-0.9873 -7.20935,-1.39868c-1.66397,-0.40051 -3.27274,-0.8457 -4.82849,-1.32605c-1.52029,-0.46936 -2.99551,-0.9696 -4.42349,-1.50598c-2.7771,-1.04309 -4.10294,-1.62463 -5.40933,-2.19592c-1.29095,-0.56445 -2.5592,-1.14673 -3.81302,-1.7356c-1.24753,-0.58594 -2.48532,-1.18359 -3.72299,-1.78052c-2.48532,-1.19861 -3.73807,-1.7981 -4.98801,-2.39331c-1.23373,-0.5874 -2.43866,-1.1626 -3.6015,-1.72192l-1.10782,-0.53943l-1.03983,-0.51526l-0.95883,-0.4873"/>
  <path fill="none" stroke="#000000" stroke-width="5" id="svg_26" d="m259,1352.36218c3.16666,-1.33337 3.97952,-1.54675 4.91599,-1.77332c1.04877,-0.25378 2.20526,-0.52039 3.45901,-0.81006c1.34357,-0.31042 2.77017,-0.63647 4.26901,-0.98999c3.1911,-0.75256 4.86584,-1.16431 6.58932,-1.604c1.77661,-0.45325 3.60266,-0.93848 5.47501,-1.46851c1.92776,-0.54565 3.9061,-1.12976 5.92499,-1.78345c4.21313,-1.36414 6.3782,-2.16406 8.58267,-2.99866c2.23935,-0.84778 4.48517,-1.74719 6.7215,-2.69702c2.23444,-0.94897 4.44092,-1.927 6.58649,-2.96704c4.16907,-2.021 6.11563,-3.10693 7.98135,-4.19592c1.80981,-1.05627 3.52823,-2.1438 5.1405,-3.27454c1.56226,-1.0957 3.04013,-2.21436 4.37549,-3.40955c2.55081,-2.2832 3.61197,-3.54797 4.604,-4.79468c0.96503,-1.21289 1.82202,-2.45801 2.58301,-3.7124c0.73999,-1.21985 1.39496,-2.44446 1.953,-3.66748c1.06232,-2.32825 1.44858,-3.48364 1.80933,-4.60278c0.3519,-1.09167 0.6452,-2.1814 0.88348,-3.27148c0.23773,-1.08752 0.42969,-2.19153 0.56851,-3.31641c0.28687,-2.32446 0.34302,-3.54822 0.40668,-4.80408c0.06525,-1.28699 0.10382,-2.60254 0.129,-3.94202c0.02554,-1.35913 0.03516,-2.73462 0.039,-4.12195c0.00772,-2.79468 0.00839,-4.19556 -0.00668,-5.60132c-0.0152,-1.41602 -0.0488,-2.84753 -0.13651,-4.29749c-0.08932,-1.47693 -0.21704,-2.98694 -0.45148,-4.52258c-0.49146,-3.21948 -0.92993,-4.88538 -1.40002,-6.58667c-0.47919,-1.73413 -1.0351,-3.4668 -1.6485,-5.1825c-0.60944,-1.70459 -1.25653,-3.36755 -1.9635,-4.95752c-1.33609,-3.00488 -2.07245,-4.34082 -2.78665,-5.58655c-0.67392,-1.17554 -1.35913,-2.25549 -2.0415,-3.24756c-0.64249,-0.9342 -1.28052,-1.78992 -1.90649,-2.57251c-1.13721,-1.42188 -1.68787,-2.03479 -2.19601,-2.60938c-0.47211,-0.53381 -0.91782,-1.02063 -1.33499,-1.46399c-0.38303,-0.4071 -0.73877,-0.7738 -1.065,-1.104c-0.55789,-0.5647 -0.79449,-0.79919 -1.00534,-1.00525c-0.18665,-0.1825 -0.35428,-0.34229 -0.513,-0.474c-0.14301,-0.11865 -0.2804,-0.22156 -0.423,-0.29407c-0.27689,-0.14063 -0.43924,-0.17236 -0.60397,-0.20398c-0.17102,-0.03284 -0.35049,-0.05188 -0.53552,-0.06445c-0.18967,-0.01294 -0.38364,-0.01758 -0.58047,-0.01953c-0.39865,-0.00391 -0.59851,-0.00134 -0.79736,-0.00134c-0.19681,0 -0.39066,0 -0.58047,0c-0.18484,0 -0.36368,0 -0.53552,0c-0.31866,0 -0.46399,0 -0.60132,0c-0.13135,0 -0.25867,0 -0.384,0c-0.12534,0 -0.25266,0 -0.384,0c-0.28265,0 -0.43732,0 -0.60001,0c-0.16867,0 -0.34134,0 -0.51599,0c-0.17465,0 -0.34732,0 -0.51599,0c-0.31735,0 -0.46249,-0.00098 -0.59866,0.00134c-0.1282,0.0022 -0.24936,0.00928 -0.3645,0.01953l-0.11017,0.01514l-0.10617,0.02112l-0.10318,0.0282"/>
  <path fill="none" stroke="#000000" stroke-width="5" id="svg_27" d="m322,1236.36218c4.27066,-0.96399 4.29099,-1 3.39584,-1c-0.6225,0 -1.60385,0 -2.49518,0c-1.06732,0 -1.66199,0 -2.29468,0c-0.66864,0 -2.10599,0 -2.87048,0c-0.7915,0 -1.60699,0 -2.44351,0c-0.85449,0 -1.724,0 -2.6055,0c-0.8905,0 -2.68649,0 -3.586,0c-0.89648,0 -1.78699,0 -2.66849,0c-0.86951,0 -1.724,0 -2.56052,0c-0.81549,0 -2.37149,0 -3.10699,0c-0.7085,0 -1.39301,0 -2.05649,0c-0.64551,0 -1.276,0 -1.8945,0c-1.81351,0 -2.41318,0 -3.01083,0c-1.18134,0 -1.76102,0 -2.88834,0c-0.54367,0 -2.07117,0 -2.99551,0c-0.43616,0 -1.26147,0 -2.75217,0c-0.67865,0 -1.60416,0 -2.39465,0l-0.95767,0"/>
  <path fill="none" stroke="#000000" stroke-width="5" id="svg_28" d="m279,1237.36218c0,3.74353 0,4.62781 0,5.60413c0,0.52515 0.00031,1.65454 0,2.89587c-0.00018,0.66638 -0.00009,1.37073 -0.009,2.12097c-0.00958,0.80432 -0.02829,1.67078 -0.06299,2.60706c-0.0376,1.01453 -0.08237,2.11572 -0.26135,4.60535c-0.1008,1.40234 -0.2327,2.89404 -0.38998,4.45496c-0.16248,1.61243 -0.34949,3.25464 -0.57001,4.90503c-0.21954,1.64307 -0.4267,3.26355 -1.04001,6.30664c-0.28448,1.41162 -0.62225,2.73376 -0.9675,3.98096c-0.32864,1.18726 -0.67685,2.31116 -1.01248,3.38708c-0.32278,1.03479 -0.66675,2.02539 -1.18668,3.96533c-0.25214,0.94067 -0.45297,1.87866 -0.63751,2.80493c-0.18207,0.91382 -0.34076,1.82019 -0.5025,2.71509c-0.15997,0.88501 -0.29837,1.76611 -0.69333,3.47998c-0.19537,0.84778 -0.42831,1.67773 -0.672,2.49146c-0.23911,0.79834 -0.49216,1.5719 -0.74399,2.32056c-0.24292,0.72229 -0.49014,1.40942 -0.91733,2.68799c-0.19357,0.57935 -0.36511,1.1228 -0.5145,1.63342c-0.13968,0.47754 -0.26065,0.92798 -0.36151,1.35449c-0.09521,0.40259 -0.18216,0.78601 -0.29068,1.51208c-0.05142,0.34399 -0.08405,0.67847 -0.11398,1.00049c-0.02869,0.30872 -0.05087,0.60376 -0.078,0.88342c-0.02563,0.26404 -0.03812,0.51514 -0.14133,0.94934c-0.04568,0.19214 -0.11063,0.36206 -0.186,0.50549c-0.06683,0.12708 -0.14041,0.23132 -0.22202,0.29858c-0.06757,0.05566 -0.39319,-0.24524 -0.42084,-0.94141c-0.04834,-1.21765 -0.00449,-1.79724 -0.00449,-2.8053c0,-1.224 0,-1.68835 0,-2.69104c0,-0.53027 0,-1.62891 0,-2.18933c0,-1.677 -0.01151,-2.2229 0.01349,-3.29993c0.01251,-0.53979 0.02301,-1.08813 0.15802,-2.21069c0.07089,-0.58948 0.31448,-1.83667 0.49316,-2.49731c0.38159,-1.41113 0.64688,-2.13562 0.91867,-2.87732c0.27744,-0.75708 0.57794,-1.51868 0.90598,-2.2771c0.65863,-1.52283 1.02777,-2.26208 1.39603,-2.99731c0.36743,-0.73352 0.74872,-1.45959 1.1355,-2.18396c0.38791,-0.72632 0.78476,-1.45203 1.18048,-2.18396c0.80093,-1.48145 1.19931,-2.23718 1.60001,-3c0.40363,-0.76843 0.8074,-1.54236 1.21951,-2.31604c0.41321,-0.77563 0.82944,-1.55127 1.2645,-2.31604c0.86761,-1.52515 1.33051,-2.26611 1.80133,-2.99731c0.46921,-0.72876 0.95425,-1.44397 1.45499,-2.14502c0.49933,-0.6991 1.01175,-1.38647 1.54501,-2.05493c1.06366,-1.33325 1.63025,-1.96948 2.19998,-2.60132c0.57028,-0.63245 1.15622,-1.25305 1.755,-1.8645c0.60123,-0.61389 1.21582,-1.22083 1.845,-1.81958c1.27161,-1.21021 1.93231,-1.80359 2.59735,-2.39868c0.66632,-0.59631 1.33884,-1.1842 2.01599,-1.76099c0.67218,-0.57251 1.34311,-1.13257 2.01599,-1.6709c1.30927,-1.04761 1.95923,-1.53162 2.59735,-1.99744c0.62201,-0.4541 1.23688,-0.88464 1.845,-1.28992c0.59201,-0.39453 1.17523,-0.76794 1.755,-1.10999c1.11105,-0.6554 1.66272,-0.9353 2.20132,-1.20276c0.52582,-0.26111 1.04785,-0.50195 1.56448,-0.729c0.50876,-0.22363 1.01566,-0.43433 1.5195,-0.63892c0.99997,-0.40613 1.50067,-0.60254 2.48334,-0.99817l0.47534,-0.19385l0.89865,-0.37463l0.80267,-0.35071"/>
  <path fill="none" stroke="#000000" stroke-width="5" id="svg_29" d="m346,1231.36218c-2.86584,1.32166 -3.70337,1.67285 -4.72916,2.04163c-0.58856,0.21155 -1.23935,0.42749 -1.95752,0.64502c-1.64157,0.49719 -2.5849,0.73975 -3.60266,0.99866c-1.08917,0.2771 -2.25092,0.5553 -3.48151,0.83557c-1.2934,0.29468 -2.6496,0.59033 -4.0665,0.88049c-2.9931,0.61292 -4.5697,0.90137 -6.18933,1.19995c-1.65866,0.30579 -3.35336,0.60913 -5.07748,0.91956c-1.74921,0.31494 -3.51926,0.63147 -5.30252,0.96448c-3.59518,0.67139 -5.39435,1.03271 -7.19598,1.40002c-1.80704,0.36841 -3.61896,0.74927 -5.439,1.1355c-1.83063,0.38843 -3.67239,0.78491 -5.52902,1.18042c-3.76208,0.80139 -5.6702,1.2019 -7.58932,1.59338c-1.91754,0.39124 -3.82535,0.76965 -5.715,1.12195c-1.85709,0.34619 -3.67386,0.67249 -5.44501,0.94202c-3.34167,0.50842 -4.90598,0.66833 -6.39066,0.80005c-1.40848,0.125 -2.74762,0.20618 -4.01849,0.25793c-1.2052,0.04907 -2.34897,0.07031 -3.4335,0.078c-2.00397,0.01428 -2.92902,0.00537 -3.80402,0.00537c-0.82498,0 -1.59999,0 -2.325,0c-0.67499,0 -1.29999,0 -1.875,0c-1,0 -1.42566,0 -1.80533,0c-0.33766,0 -0.63733,0 -0.903,0c-0.23567,0 -0.44533,0 -0.633,0c-0.32533,0 -0.4705,0 -0.60667,0c-0.12816,0 -0.24933,0 -0.3645,0l-0.11017,0l-0.10616,0l-0.10316,0"/>
  <path fill="none" stroke="#000000" stroke-width="5" id="svg_30" d="m170,1401.36218c0,-0.81885 -0.03299,-1.77808 0.0625,-2.60413c0.07867,-0.68054 0.41626,-1.90405 0.7975,-2.85718c0.21323,-0.53308 0.47495,-1.0918 0.765,-1.68457c0.30963,-0.63281 0.65488,-1.29907 1.035,-1.99951c0.82884,-1.52734 1.30118,-2.34326 1.80133,-3.19861c0.524,-0.89612 1.08362,-1.82483 1.68449,-2.78101c0.62427,-0.99341 1.28525,-2.01489 1.99951,-3.05103c1.49825,-2.17346 2.33582,-3.27026 3.19199,-4.39465c0.87341,-1.14709 1.77553,-2.30066 2.6835,-3.47095c0.9147,-1.17908 1.83575,-2.35986 2.7285,-3.56104c1.77078,-2.38257 2.59712,-3.59155 3.39734,-4.80798c0.80153,-1.21838 1.57715,-2.46851 2.3325,-3.75598c0.77159,-1.31519 1.53494,-2.68359 2.28749,-4.11609c1.59494,-3.03601 2.38762,-4.6853 3.2,-6.41333c0.84648,-1.80054 1.69099,-3.69116 2.51251,-5.67896c0.85255,-2.06287 1.69398,-4.22021 2.4675,-6.48901c1.62881,-4.77759 2.31056,-7.34253 2.98933,-9.96936c0.68861,-2.66492 1.31113,-5.36255 1.8765,-8.0625c0.55843,-2.66687 1.05934,-5.28687 1.4715,-7.8374c0.76895,-4.75842 1.00517,-6.94177 1.20401,-8.98145c0.18602,-1.9082 0.30914,-3.70203 0.38699,-5.3894c0.07341,-1.59143 0.10538,-3.09961 0.117,-4.53455c0.02184,-2.69458 0.01411,-3.97546 -0.00134,-5.21997c-0.01506,-1.21277 -0.04701,-2.39856 -0.13649,-3.55798c-0.08815,-1.14233 -0.2115,-2.2738 -0.45151,-3.37805c-0.48373,-2.22571 -0.92717,-3.31665 -1.40533,-4.40527c-0.48856,-1.1123 -1.07191,-2.21191 -1.7265,-3.30005c-0.6692,-1.11243 -1.4095,-2.2157 -2.2215,-3.30005c-1.67238,-2.23328 -2.62515,-3.30798 -3.588,-4.39465c-0.97116,-1.09607 -1.97643,-2.16992 -3.00301,-3.22192c-1.02151,-1.04675 -2.05287,-2.06433 -3.093,-3.04199c-2.0145,-1.89355 -3.01668,-2.7616 -3.99466,-3.59741c-0.95088,-0.81274 -1.89319,-1.58557 -2.82899,-2.31897c-0.91502,-0.71716 -1.82513,-1.4032 -2.739,-2.04895c-1.78816,-1.26343 -2.6985,-1.83862 -3.59868,-2.40271c-0.8869,-0.55579 -1.76949,-1.08423 -2.64149,-1.58997c-0.8521,-0.49414 -1.68893,-0.96387 -2.5065,-1.41003c-1.55212,-0.84705 -2.28957,-1.23328 -2.99867,-1.59863c-0.67964,-0.35022 -1.33553,-0.67737 -1.974,-0.97058c-0.6124,-0.28125 -1.20676,-0.53979 -1.79399,-0.74548c-1.11232,-0.38953 -1.66571,-0.50513 -2.20401,-0.60266c-0.52632,-0.09534 -1.04874,-0.15527 -1.5645,-0.19348c-0.50967,-0.03772 -1.01627,-0.05273 -1.5195,-0.05847c-1.00127,-0.01147 -1.50183,-0.00488 -2.00533,-0.00269c-0.50951,0.0022 -1.02805,0.00708 -1.5585,0.01953c-0.54556,0.01282 -1.10925,0.03125 -1.6935,0.06445c-1.24464,0.07068 -1.90929,0.13196 -2.60268,0.20264c-0.72232,0.07361 -1.47142,0.16382 -2.2455,0.27454c-0.80066,0.1145 -1.62553,0.24634 -2.47049,0.40955c-1.76282,0.34045 -2.67172,0.56104 -3.60001,0.80798c-0.95627,0.25439 -1.93484,0.5509 -2.9295,0.90747c-1.03113,0.36963 -2.08963,0.79346 -3.1545,1.3125c-2.27129,1.10718 -3.41583,1.83276 -4.58667,2.59729c-1.20209,0.78491 -2.39044,1.6377 -3.55049,2.54858c-1.16154,0.91211 -2.28726,1.85706 -3.3255,2.8634c-1.99864,1.93726 -2.82721,2.97461 -3.59467,3.98938c-0.74251,0.98181 -1.40097,1.9812 -1.9965,2.98047c-0.58159,0.97583 -1.10497,1.95837 -1.5915,2.93555c-0.95022,1.90845 -1.37752,2.86194 -1.80666,3.79736c-0.42213,0.92017 -0.82721,1.82813 -1.206,2.72546c-0.37043,0.87744 -0.72096,1.73865 -1.026,2.59045c-0.58355,1.62952 -0.80261,2.42615 -1,3.19873c-0.19099,0.74756 -0.34676,1.47852 -0.474,2.18994c-0.12318,0.68872 -0.22108,1.35901 -0.294,2.01001c-0.13869,1.23828 -0.17322,1.8302 -0.20134,2.40405c-0.0274,0.5592 -0.03825,1.10815 -0.0255,1.64844c0.01264,0.53577 0.04337,1.07056 0.1095,1.60352c0.13495,1.08752 0.26192,1.64099 0.40267,2.20142c0.14345,0.57117 0.31837,1.14514 0.5295,1.71594c0.21413,0.57886 0.45771,1.15686 0.7545,1.71594c0.60409,1.13794 0.99676,1.66968 1.39867,2.20142c0.40937,0.54163 0.85696,1.07178 1.326,1.60352c0.48022,0.54431 0.98757,1.08875 1.506,1.64844c1.07784,1.16357 1.63273,1.77222 2.19334,2.396c0.5664,0.63013 1.13088,1.26501 1.6965,1.89307c0.5584,0.62 1.10549,1.22705 1.6515,1.80298c1.02574,1.08191 1.52243,1.55701 1.99867,1.99866c0.45265,0.4198 0.89703,0.80859 1.32899,1.17749c0.41876,0.35767 0.83434,0.69971 1.239,1.04248c0.806,0.68274 1.20425,1.04041 1.60667,1.40674c0.41061,0.37378 0.8271,0.76086 1.2585,1.15491c0.44456,0.40601 0.90485,0.82483 1.39349,1.245c1.03532,0.89026 1.60669,1.33777 2.20134,1.80139c0.61662,0.48083 1.26129,0.96948 1.92599,1.47449c0.68463,0.52026 1.39017,1.05261 2.106,1.6095c1.48323,1.15381 2.23375,1.76965 3,2.39868c0.78246,0.64233 1.57713,1.3031 2.394,1.97095c0.83377,0.68164 1.68648,1.37537 2.57401,2.06104c1.83005,1.41382 2.80116,2.10498 3.79733,2.79065c1.00648,0.69275 2.03571,1.36475 3.08701,2.00256c1.0475,0.6355 2.10223,1.24255 3.177,1.77747c2.09157,1.04102 3.15315,1.43713 4.19466,1.79736c1.01897,0.35242 2.03619,0.64343 3.045,0.88342c0.9915,0.23584 1.97733,0.42651 2.955,0.56848c1.91534,0.2782 2.86427,0.34204 3.79868,0.40674c0.92134,0.06384 1.83051,0.10352 2.72549,0.12903c0.87971,0.02502 1.74365,0.03503 2.5905,0.03894c1.63866,0.00745 2.4287,0.0061 3.19867,-0.00269c0.75006,-0.00854 1.4807,-0.02649 2.19,-0.078c0.69084,-0.05017 1.36537,-0.1178 2.00999,-0.25793c1.2527,-0.27234 1.83847,-0.52612 2.39734,-0.80139c0.55298,-0.27234 1.07272,-0.59656 1.55099,-0.96143c0.47137,-0.35962 0.90863,-0.75183 1.28101,-1.18652c0.72034,-0.84094 0.97276,-1.32312 1.20132,-1.79333c0.22441,-0.46167 0.388,-0.94141 0.5385,-1.41602l0.1255,-0.47461l0.1035,-0.47278l0.0845,-0.46863"/>
  <path fill="none" stroke="#000000" stroke-width="5" id="svg_31" d="m197,1236.36218c-0.9955,-1.69995 -1,-2.59998 -1,-3.5c0,-0.90002 -0.00008,-1.80005 0,-2.69995c0.00009,-0.8999 0.28236,-1.75732 1.20134,-1.80005c0.68326,-0.03174 1.62399,0 2.63199,0c0.828,0 1.7095,0 2.42801,0c0.7905,0 2.05687,-0.01904 2.75949,0.02087c0.75006,0.04272 1.95479,0.2478 2.65117,0.4364c0.75528,0.20459 1.55077,0.47437 2.728,1.08545c0.40744,0.21155 1.19814,0.71094 2,1.20667c0.39908,0.2467 1.58844,0.94385 2.40268,1.28125c0.80807,0.33484 1.6689,0.58545 2.11166,0.71753c1.41763,0.42297 1.93181,0.56445 3.0045,0.91797c0.56543,0.1864 1.14929,0.38184 2.34732,0.85266c0.62486,0.24561 1.90306,0.8092 2.5545,1.12366c0.66063,0.31885 1.31552,0.6554 1.96201,0.99756c0.6355,0.3363 1.8362,0.99707 2.392,1.30664c0.99236,0.55273 1.78882,1.02246 2.76283,1.49084c0.54767,0.26331 1.70389,0.66675 2.36783,0.86255c0.69336,0.20447 1.73448,0.47693 2.6515,0.7998c0.76752,0.27026 1.53107,0.73535 2.564,0.87927c1.01227,0.14099 1.72984,0.03149 2.47383,0.078l1.03601,0.22815l0.7175,0.41919"/>
  <path fill="none" stroke="#000000" stroke-width="5" id="svg_32" d="m291,1241.36218c-7.5,0 -8.82318,0 -10.28534,0c-1.59015,0 -3.29733,0 -5.1105,0c-1.90814,0 -3.90033,0 -5.96548,0c-4.30533,0 -6.52499,0 -8.78268,0c-2.29364,0 -4.62131,0 -6.98099,0c-2.38966,0 -4.80733,0 -7.25101,0c-4.95732,0 -7.46616,0.00244 -9.98799,-0.00403c-2.52785,-0.00659 -5.05478,-0.02026 -7.5735,-0.05847c-2.50395,-0.03796 -4.98645,-0.08887 -7.43851,-0.19348c-4.79251,-0.20459 -7.11682,-0.39502 -9.39066,-0.59863c-2.22621,-0.19934 -4.40094,-0.43469 -6.52501,-0.68701c-2.07594,-0.24658 -4.10033,-0.51221 -6.075,-0.7771c-3.80064,-0.50989 -5.62518,-0.75977 -7.40134,-0.99731c-1.72818,-0.2312 -3.40976,-0.45544 -5.04449,-0.68396c-1.59059,-0.22229 -3.13791,-0.44263 -4.6395,-0.68396c-2.88448,-0.4635 -4.26199,-0.73047 -5.59601,-0.99866c-1.28864,-0.25903 -2.52364,-0.52783 -3.702,-0.79651c-1.12027,-0.25549 -2.1752,-0.50879 -3.162,-0.75159c-1.75565,-0.43201 -2.51544,-0.62634 -3.20132,-0.79724c-0.61578,-0.15344 -1.16667,-0.28943 -1.6575,-0.40955l-0.43584,-0.10522l-0.38583,-0.09106l-0.34084,-0.07825"/>
  <path fill="none" stroke="#000000" stroke-width="5" id="svg_33" d="m286.22223,1177.47327c-0.39438,2.74487 -0.64813,3.62988 -0.81305,4.15295c-0.3938,1.24902 -0.64197,1.98425 -0.91495,2.80652c-0.64075,1.93005 -1.01627,3.04712 -1.41748,4.26184c-0.42908,1.29907 -0.87827,2.67273 -1.336,4.11206c-0.47397,1.49036 -0.95367,3.02283 -1.41602,4.59204c-0.93695,3.17993 -1.36197,4.78491 -1.77304,6.39758c-0.41449,1.62598 -0.80762,3.28101 -1.18134,4.97327c-0.38269,1.73291 -0.75204,3.52075 -1.10132,5.37341c-0.73871,3.91833 -1.07571,6.00732 -1.41986,8.16357c-0.35172,2.20349 -0.68607,4.4386 -0.99734,6.6853c-0.30972,2.2356 -0.59821,4.44324 -0.83731,6.60535c-0.45285,4.09509 -0.59421,6.00146 -0.71112,7.8103c-0.1113,1.72192 -0.18369,3.37048 -0.22934,4.95471c-0.04413,1.5304 -0.0625,3.01868 -0.06934,4.47461c-0.01343,2.85876 -0.00473,4.27979 -0.00473,5.69373c0,1.39966 0,2.77808 0,4.12793c0,1.31445 0,2.58606 0,3.80798c0,2.26611 0,3.2981 0,4.2644c0,0.90576 0,1.75635 0,2.55725c0,0.75647 0,1.47375 0,2.15735c0,1.28711 0,1.90051 0,2.49597c0,0.57776 0,1.13782 0,1.68005c0,0.52441 0,1.03113 0,1.52002c0,0.92444 0.00156,1.36023 -0.00238,1.78015c-0.00381,0.40564 -0.01657,0.79883 -0.03467,1.18127l-0.02695,0.37366l-0.03763,0.36646l-0.05008,0.36121"/>
  <path fill="#000000" stroke="#000000" stroke-width="5" stroke-dasharray="null" stroke-linejoin="null" stroke-linecap="null" id="svg_34" d="m216.88889,1113.47327c0,1.26196 0,2.1073 0,3.25928c0,0.75195 0,1.53601 0,2.17126c0,1.26221 0,1.78247 0,2.95825c0,0.64832 0,1.33215 0,2.04797c0,0.74426 0,2.30396 0,3.11292c0,0.82666 0,1.67114 0,2.53333c0,0.88 0,1.77771 0,2.69336c0,0.93335 0,2.85327 0,3.8396c0,1.00244 0,2.01904 0,3.0481c0,1.03967 0,2.08826 0,3.14392c0,1.06104 0,3.19202 0,4.25903c0,1.06873 0,2.14099 0,3.21863c0,1.08472 0,2.17834 0,3.28271c0,1.1167 0.00175,3.39465 -0.0006,4.55823c-0.00237,1.1759 -0.00824,2.35925 -0.03732,3.54395c-0.02901,1.18164 -0.07686,2.35474 -0.16534,3.51196c-0.08714,1.13977 -0.36884,3.34009 -0.58488,4.3855c-0.21117,1.02173 -0.47845,2.01282 -0.8,2.9707c-0.31874,0.94946 -0.69446,1.87549 -1.12,2.77869c-0.42786,0.9082 -1.42848,2.68982 -1.99022,3.57092c-0.56888,0.89221 -1.17769,1.76819 -1.81067,2.62939c-0.6311,0.85864 -1.28145,1.69214 -1.93866,2.50134c-0.64426,0.79321 -1.9191,2.2804 -2.5363,2.97119c-0.59421,0.66504 -1.17848,1.29785 -1.752,1.90405c-0.55782,0.5896 -1.11043,1.15796 -1.65601,1.71191c-0.5377,0.5459 -1.60669,1.61743 -2.14192,2.14905c-0.53618,0.53259 -1.077,1.06445 -1.63733,1.58142c-0.56442,0.52075 -1.14891,1.03137 -1.76534,1.51733c-0.62567,0.49316 -1.98244,1.41699 -2.71733,1.84143c-0.75137,0.43396 -1.53923,0.8374 -2.34401,1.2373c-0.81476,0.40491 -1.64426,0.79797 -2.472,1.20532c-0.82916,0.40796 -2.46097,1.26086 -3.24712,1.7218c-0.77835,0.45642 -1.53072,0.93408 -2.26666,1.41064c-0.7218,0.46741 -1.42038,0.93445 -2.10666,1.37866c-0.6649,0.43042 -1.9416,1.21216 -2.5603,1.54114c-0.59291,0.31531 -1.1779,0.59143 -1.752,0.83728c-0.55736,0.23865 -1.11028,0.44958 -1.65601,0.64539c-0.53758,0.19287 -1.60789,0.54956 -2.14073,0.72681c-0.5291,0.1759 -1.05087,0.349 -1.56267,0.51465c-0.49683,0.16077 -0.97588,0.31287 -1.43466,0.45068c-0.43254,0.12988 -1.20959,0.34326 -1.54933,0.41895c-0.30754,0.06848 -0.59142,0.1189 -0.856,0.15198c-0.2493,0.03125 -0.49057,0.04773 -0.72801,0.05603c-0.23903,0.0083 -0.74399,0.00793 -1.01895,0.00793c-0.28918,0 -0.58904,0 -0.89601,0c-0.31052,0 -0.62103,0 -0.92799,0c-0.29985,0 -0.864,0 -1.36415,0c-0.84384,0 -1.75169,0 -2.64059,0l-0.88889,0.00037l-0.88889,0.06372"/>
  <path fill="none" stroke="#000000" stroke-width="5" stroke-dasharray="null" stroke-linejoin="null" stroke-linecap="null" id="svg_35" d="m142.22223,1189.91772c-0.75615,-0.79407 -1.35976,-1.29224 -1.55911,-2.35022c-0.17976,-0.9541 0.08157,-1.40186 0.70399,-2.22937c0.40242,-0.53503 1.73183,-1.65942 2.62134,-2.29065c1.00789,-0.71521 2.16504,-1.44397 3.43199,-2.21069c1.35139,-0.81787 2.79228,-1.64685 4.29601,-2.49866c1.54688,-0.87634 4.72644,-2.64539 6.3286,-3.53064c1.6026,-0.8855 3.2095,-1.76587 4.83733,-2.6106c1.63034,-0.84607 3.2809,-1.66284 4.96533,-2.4187c1.69119,-0.75891 5.18094,-2.10852 6.98282,-2.67883c1.80855,-0.57251 3.63968,-1.06348 5.46933,-1.50403c1.8073,-0.43518 3.59407,-0.81018 5.34134,-1.15198c1.69225,-0.33105 4.87697,-0.89807 6.34578,-1.15381c1.38986,-0.24194 2.71204,-0.46741 3.97867,-0.66663c1.21877,-0.19165 2.40254,-0.36353 3.56265,-0.50671c1.14395,-0.14111 3.43399,-0.35754 4.59824,-0.42603c1.1754,-0.06909 2.35915,-0.1073 3.54399,-0.09595c1.18159,0.01135 2.35596,0.06763 3.51201,0.19189c1.14124,0.12268 3.34512,0.54529 4.38547,0.87c1.02739,0.32068 2.02235,0.7312 2.97067,1.2373c0.95981,0.51221 1.88831,1.13049 2.77867,1.84534c0.9221,0.74036 2.7029,2.5321 3.57303,3.57275c0.92102,1.10156 1.83113,2.33154 2.76001,3.67468c0.99525,1.43909 2.01143,3.01917 3.08,4.73059c1.14838,1.83923 3.64458,5.97607 5.01511,8.27832c1.45285,2.44055 2.96396,5.00867 4.49866,7.69861c1.58212,2.77307 3.16907,5.62915 4.72267,8.56262c1.56842,2.96155 4.54437,8.98132 5.90134,12.01697c1.34512,3.00916 2.5912,6.03247 3.73334,9.06665c1.1333,3.01074 2.16591,6.0343 3.09334,9.06665c0.92136,3.01245 2.48346,9.06006 3.13007,12.08801c0.64273,3.00977 1.18774,6.01819 1.67465,9.01062c0.48242,2.96497 0.89932,5.90833 1.29068,8.81873c0.38605,2.87085 1.09686,8.48291 1.45364,11.2113c0.34961,2.67371 0.69888,5.28967 1.02933,7.8479c0.32254,2.49719 0.62973,4.93176 0.90134,7.30408c0.26385,2.30444 0.69305,6.71082 0.83731,8.81091c0.13971,2.03406 0.2309,4.0127 0.26666,5.94141c0.03494,1.88538 0.01828,3.73621 -0.05331,5.55725c-0.07083,1.80115 -0.35736,5.36719 -0.5683,7.14258c-0.21097,1.77551 -0.47079,3.54199 -0.76266,5.29602c-0.29013,1.74353 -0.61346,3.46692 -0.95468,5.16797c-0.33682,1.67908 -1.04657,4.94495 -1.40622,6.52588c-0.35156,1.54541 -0.70609,3.05127 -1.06665,4.51465c-0.35068,1.42322 -0.70493,2.80115 -1.06668,4.13074c-0.34958,1.28479 -1.05951,3.70093 -1.42191,4.82751c-0.34668,1.07776 -0.69788,2.09973 -1.048,3.06665c-0.33224,0.91748 -0.66217,1.77942 -0.98401,2.58667c-0.30182,0.75708 -0.86945,2.10779 -1.13007,2.70288c-0.23975,0.54736 -0.46652,1.0481 -0.68533,1.50391c-0.2016,0.41992 -0.4006,0.80127 -0.58936,1.1521l-0.18338,0.32227"/>
  <path fill="none" stroke="#000000" stroke-width="5" stroke-dasharray="null" stroke-linejoin="null" stroke-linecap="null" id="svg_36" d="m280.88889,1383.69556c-32.2963,6.81482 -35.59218,7.44165 -38.91437,8.01892c-3.34215,0.58081 -6.71474,1.12451 -10.12267,1.61072c-3.43779,0.49048 -6.91628,0.94019 -10.44267,1.29065c-7.17961,0.7135 -10.85698,0.89844 -14.58252,1.06897c-3.77681,0.17285 -7.60863,0.27673 -11.49333,0.34399c-3.93756,0.06812 -7.92886,0.09387 -11.97333,0.104c-8.24886,0.02075 -12.45186,0.0072 -16.69926,0.0072c-4.28296,0 -8.59259,0 -12.92,0c-4.33629,0 -8.67259,0 -13,0c-8.59259,0 -12.84118,0 -17.05244,0c-4.17214,0 -8.30341,0 -12.392,0c-4.04414,0 -8.04208,0 -11.992,0c-7.74874,0 -11.54459,0 -15.28889,0c-3.69451,0 -7.34103,0 -10.94133,0c-3.55585,0 -7.06904,0 -10.54133,0c-6.82904,0 -10.18667,0 -13.49452,0c-3.24385,0 -6.40948,0 -9.48267,0l-2.96652,0l-2.84563,0l-2.71052,0"/>
  <path fill="none" stroke="#000000" stroke-width="5" stroke-dasharray="null" stroke-linejoin="null" stroke-linecap="null" id="svg_37" d="m384,1412.14001c0.78726,-3.91235 1.2728,-4.64709 1.81482,-5.48157c0.29849,-0.45947 0.68268,-0.92859 1.44443,-2.81482c0.29504,-0.73059 0.50986,-1.5448 0.72,-2.39734c0.21695,-0.88025 0.39944,-1.78638 0.56,-2.70129c0.15942,-0.90845 0.30319,-1.80151 0.4978,-3.4939c0.08887,-0.77271 0.14932,-1.49536 0.19464,-2.16797c0.04205,-0.62415 0.06894,-1.20227 0.08267,-1.73608c0.02423,-0.94092 0.01898,-2.06433 0.01898,-2.92029c0,-0.72803 0.17212,-1.80127 -0.18964,-2.66187c-0.31158,-0.74133 -0.80121,-1.05029 -1.32742,-1.3606c-1.38708,-0.81787 -2.41861,-1.07678 -3.56503,-1.43652c-1.29593,-0.40662 -2.74805,-0.81702 -4.32532,-1.30933c-1.7084,-0.5332 -3.53989,-1.12024 -5.44534,-1.86926c-4.14789,-1.63049 -6.28922,-2.74243 -8.52621,-3.90405c-2.33777,-1.21387 -4.73959,-2.54272 -7.25067,-3.89331c-2.60175,-1.39929 -5.29071,-2.84998 -8.13068,-4.21338c-5.9339,-2.84863 -9.14105,-4.09241 -12.45392,-5.32385c-3.41483,-1.26941 -6.97934,-2.46521 -10.67465,-3.64795c-3.81628,-1.22144 -7.77887,-2.41846 -11.87469,-3.64807c-8.60413,-2.58313 -13.12067,-3.9281 -17.75406,-5.34033c-4.73965,-1.44458 -9.56149,-2.93115 -14.44534,-4.45605c-4.93188,-1.53992 -9.88843,-3.10229 -14.84534,-4.69604c-9.86517,-3.17175 -14.72142,-4.78772 -19.52473,-6.38574c-4.74571,-1.57886 -9.42415,-3.15161 -14.03732,-4.69604c-4.54118,-1.52039 -9.0047,-3.01807 -13.39734,-4.45593c-8.5211,-2.78918 -12.6609,-4.07849 -16.70874,-5.33813c-3.95992,-1.2323 -7.84114,-2.42212 -11.63466,-3.61328c-3.71817,-1.16748 -7.36407,-2.31824 -10.91467,-3.53333c-6.92133,-2.36865 -10.24744,-3.66821 -13.48741,-4.96826c-3.1463,-1.26245 -6.15201,-2.54004 -9.00533,-3.79468c-2.69547,-1.18518 -5.19525,-2.32666 -7.48534,-3.39465c-3.8911,-1.8147 -5.44563,-2.56567 -6.76266,-3.19531c-1.10179,-0.52673 -2.01007,-0.96948 -2.752,-1.33594l-0.5997,-0.30432l-0.48238,-0.25452l-0.38992,-0.21716"/>
  <path fill="none" stroke="#000000" stroke-width="5" stroke-dasharray="null" stroke-linejoin="null" stroke-linecap="null" id="svg_38" d="m275.55554,1330.36218c-2.3111,-0.63501 -3.01254,-1.26233 -3.73392,-1.95557c-0.5632,-0.54114 -1.24573,-1.10974 -2.19199,-1.59998c-0.77408,-0.401 -1.25928,-0.56384 -1.78253,-0.78699c-1.24826,-0.53223 -1.98782,-0.85583 -2.80652,-1.24207c-1.93869,-0.91467 -3.04996,-1.4989 -4.26904,-2.1333c-1.31793,-0.68579 -2.72232,-1.42932 -4.216,-2.20801c-1.57117,-0.81909 -3.21393,-1.67285 -4.93599,-2.52808c-3.60793,-1.79175 -5.50905,-2.66455 -7.45482,-3.54834c-1.98546,-0.90173 -4.01892,-1.79724 -6.09065,-2.70142c-2.10484,-0.91858 -4.24538,-1.83948 -6.41068,-2.78125c-4.40665,-1.91663 -6.63841,-2.90588 -8.896,-3.91821c-2.29652,-1.02979 -4.63536,-2.09265 -7.02667,-3.18945c-2.45613,-1.12646 -4.98201,-2.29529 -7.58667,-3.50928c-5.49008,-2.55896 -8.38135,-3.92126 -11.35406,-5.32153c-3.0273,-1.4259 -6.08075,-2.8689 -9.13333,-4.31726c-3.02742,-1.4364 -6.00153,-2.85132 -8.89334,-4.2373c-5.44287,-2.60864 -7.94078,-3.82361 -10.29689,-4.96838c-2.22876,-1.08289 -4.34375,-2.11426 -6.36533,-3.09058c-1.93936,-0.93652 -3.81273,-1.83826 -5.64534,-2.69067c-3.56886,-1.66003 -5.35133,-2.43738 -7.11823,-3.20715c-1.74246,-0.75916 -3.45694,-1.49109 -5.12532,-2.21338c-1.61694,-0.70007 -3.1749,-1.37158 -4.64534,-2.05334c-2.70094,-1.25232 -3.88756,-1.88074 -4.9754,-2.48889c-1.01254,-0.56604 -1.9371,-1.12952 -2.78667,-1.67993c-0.79761,-0.51672 -1.53381,-1.02832 -2.22667,-1.52002c-1.29552,-0.91931 -1.90476,-1.36084 -2.50074,-1.78015c-0.57737,-0.40625 -1.13869,-0.79749 -1.68,-1.18127c-0.52533,-0.37244 -1.03496,-0.73511 -1.52,-1.10132c-0.93195,-0.70374 -1.36349,-1.06445 -1.77541,-1.42224c-0.39807,-0.3457 -0.7702,-0.68994 -1.112,-1.03198c-0.32409,-0.32434 -0.62093,-0.63831 -0.872,-0.95203c-0.44231,-0.55261 -0.59256,-0.8208 -0.71585,-1.06665c-0.11261,-0.22461 -0.19471,-0.44238 -0.264,-0.64807c-0.06569,-0.19495 -0.11604,-0.38684 -0.184,-0.56799c-0.13624,-0.36316 -0.24362,-0.53784 -0.35793,-0.71582c-0.11909,-0.18542 -0.25327,-0.37085 -0.384,-0.56799c-0.13483,-0.20337 -0.27307,-0.41455 -0.384,-0.64807c-0.2325,-0.4895 -0.29527,-0.77368 -0.35555,-1.06421c-0.06198,-0.29871 -0.10429,-0.60681 -0.14933,-0.91736c-0.04504,-0.31055 -0.08301,-0.61975 -0.14934,-0.91736c-0.1268,-0.56897 -0.23686,-0.82581 -0.35555,-1.06433c-0.11511,-0.23132 -0.24917,-0.44458 -0.384,-0.64795c-0.13072,-0.19714 -0.26745,-0.3811 -0.384,-0.56799c-0.21918,-0.35156 -0.29586,-0.53369 -0.35319,-0.71582c-0.05709,-0.1814 -0.0925,-0.37158 -0.11467,-0.56799c-0.02307,-0.20435 -0.03131,-0.42017 -0.03467,-0.64807c-0.00736,-0.50012 -0.00237,-0.77515 -0.00237,-1.06433c0,-0.2998 0,-0.60681 0,-0.91724c0,-0.31055 0,-0.61755 0,-0.91736c0,-0.56421 0,-0.82251 0,-1.06665c0,-0.23352 0,-0.45984 0,-0.68274c0,-0.22278 0,-0.4491 0,-0.68262c0,-0.50256 0.00135,-0.77783 -0.00237,-1.06909c-0.00391,-0.30542 -0.01253,-0.62366 -0.03467,-0.9519c-0.02278,-0.33789 -0.05427,-0.68372 -0.11466,-1.0321c-0.12357,-0.71265 -0.23641,-1.06567 -0.35319,-1.41748c-0.11674,-0.35168 -0.24971,-0.69507 -0.384,-1.03198c-0.13123,-0.32922 -0.26613,-0.6449 -0.384,-0.9519c-0.21635,-0.5636 -0.29414,-0.82336 -0.35319,-1.06677c-0.05499,-0.22668 -0.0917,-0.44275 -0.11467,-0.64795c-0.02188,-0.19543 -0.03124,-0.38464 -0.03466,-0.56799c-0.00668,-0.35791 -0.00089,-0.53577 -0.00475,-0.7135c-0.00385,-0.17773 -0.01659,-0.35559 -0.03467,-0.53333l-0.02696,-0.17773l-0.03763,-0.17786l-0.05007,-0.17773"/>
  <path fill="none" stroke="#000000" stroke-width="5" stroke-dasharray="null" stroke-linejoin="null" stroke-linecap="null" id="svg_39" d="m264.88889,1086.80664c-2.64294,0 -3.62964,0 -4.37628,0c-1.25336,0 -1.71109,-0.03149 -2.73068,0.04797c-0.59619,0.04651 -1.2673,0.15686 -2.02133,0.33606c-0.866,0.20581 -1.85785,0.47742 -4.20503,1.39368c-1.42395,0.55591 -2.98021,1.26147 -4.688,2.04004c-1.85277,0.8446 -3.83023,1.77539 -5.936,2.76001c-2.2225,1.03918 -4.54529,2.14478 -9.52414,4.38513c-2.61584,1.17712 -5.32472,2.35254 -8.10933,3.55469c-2.85448,1.2323 -5.78027,2.48071 -8.76534,3.7627c-3.04341,1.30701 -6.1463,2.62634 -12.45866,5.42346c-3.22232,1.42786 -6.46884,2.90576 -9.75201,4.39465c-3.31357,1.50256 -6.65202,3.02026 -10.02399,4.52258c-3.39012,1.51038 -6.78912,3.04163 -13.70549,5.89758c-3.46288,1.42993 -6.94643,2.78467 -10.416,4.11462c-3.43774,1.31775 -6.84332,2.58887 -10.192,3.84265c-3.28123,1.22864 -6.49487,2.39758 -12.57718,4.78345c-2.87828,1.12903 -5.62521,2.26123 -8.248,3.37866c-2.51366,1.07092 -4.90469,2.12976 -7.176,3.17065c-2.16645,0.9928 -4.22357,1.95129 -7.98341,3.82104c-1.73035,0.86047 -3.35027,1.70044 -4.86933,2.50659c-1.4295,0.75867 -2.76301,1.48853 -4.00533,2.18677c-1.16225,0.6532 -2.24309,1.27075 -4.16238,2.41772c-0.85638,0.51184 -1.6421,0.995 -2.36266,1.448c-0.6636,0.41711 -1.26696,0.81128 -1.81866,1.17603l-0.50193,0.33984l-0.4557,0.31677"/>
  <path fill="none" stroke="#000000" stroke-width="5" stroke-dasharray="null" stroke-linejoin="null" stroke-linecap="null" id="svg_40" d="m398.22223,1250.36218c0.064,-1.08557 0.37897,-1.9696 0.86993,-2.62158c0.23358,-0.31018 0.89276,-1.11035 1.31317,-1.64038c1.08154,-1.3634 1.7464,-2.22498 2.48416,-3.20947c0.81662,-1.08972 1.68863,-2.28967 2.59198,-3.60266c0.96045,-1.396 1.94925,-2.88379 2.91202,-4.48267c2.03162,-3.3739 2.96774,-5.20837 3.8945,-7.104c0.95068,-1.94446 1.8558,-3.97241 2.71201,-6.07996c0.87723,-2.1593 1.71469,-4.39648 2.47198,-6.71997c1.56808,-4.81116 2.20993,-7.35327 2.83972,-9.95325c0.6431,-2.65479 1.21899,-5.38281 1.72534,-8.17871c0.51584,-2.84827 0.97256,-5.76123 1.32532,-8.73865c0.72311,-6.10364 0.90085,-9.24915 1.07141,-12.43726c0.17291,-3.23218 0.27673,-6.50879 0.34399,-9.8241c0.06796,-3.35022 0.09381,-6.73303 0.104,-10.14392c0.0206,-6.89307 0.0174,-10.36816 -0.00949,-13.85718c-0.02698,-3.5 -0.08508,-7.00806 -0.24265,-10.51733c-0.15768,-3.51208 -0.37436,-7.02612 -0.80267,-10.51733c-0.85693,-6.98499 -1.63821,-10.43665 -2.50311,-13.8667c-0.86957,-3.44861 -1.9234,-6.87769 -3.13867,-10.28271c-1.2283,-3.44153 -2.60919,-6.87793 -4.17865,-10.28259c-3.21011,-6.96387 -5.13849,-10.39429 -7.09454,-13.86426c-1.97971,-3.51184 -4.07483,-7.0033 -6.24533,-10.48267c-2.18149,-3.49695 -4.42947,-6.96533 -6.72531,-10.40271c-4.57126,-6.84424 -6.90799,-10.18115 -9.20654,-13.47083c-2.24683,-3.2157 -4.44727,-6.31641 -6.58664,-9.27466c-2.03293,-2.81104 -3.95721,-5.43909 -5.78668,-7.83466c-3.14368,-4.11646 -4.49625,-5.74536 -5.68652,-7.11591c-1.01489,-1.16864 -1.91415,-2.12744 -2.71201,-2.90131c-0.67633,-0.65601 -1.28787,-1.18127 -1.832,-1.62134c-0.93805,-0.75867 -1.38477,-1.09991 -1.79672,-1.45776c-0.39804,-0.34576 -0.77017,-0.68994 -1.112,-1.03198c-0.32407,-0.32428 -0.62091,-0.63831 -0.87201,-0.95203c-0.44229,-0.55261 -0.59174,-0.8208 -0.71585,-1.06427c-0.11179,-0.2193 -0.19199,-0.4267 -0.26401,-0.61334l-0.06311,-0.16888l-0.05954,-0.15112l-0.06134,-0.13336"/>
  <path fill="none" stroke="#000000" stroke-width="5" stroke-dasharray="null" stroke-linejoin="null" stroke-linecap="null" id="svg_41" d="m282.66666,1088.58435c0.00476,3.15027 -0.00452,3.59058 0.0741,4.55566c0.04276,0.52502 0.19046,1.65527 0.51849,2.85181c0.1745,0.63647 0.40848,1.28064 0.67734,1.93066c0.55441,1.34033 0.89566,1.99756 1.23499,2.65723c0.33862,0.65833 1.04929,1.9314 1.40561,2.5448c0.35007,0.60254 0.71954,1.18372 1.34875,2.38586c0.31363,0.59924 0.60733,1.21533 0.83731,1.86401c0.47519,1.34045 0.59601,2.08496 0.71588,2.85144c0.12482,0.7981 0.21033,1.6355 0.29865,2.50671c0.09189,0.90649 0.17352,1.85059 0.29868,2.82666c0.26489,2.06616 0.47998,3.14807 0.71347,4.26428c0.24094,1.15173 0.51788,2.33032 0.80267,3.5387c0.2912,1.23547 0.59796,2.49316 0.88266,3.77869c0.58127,2.62439 0.82986,3.96936 1.05957,5.33337c0.2327,1.38159 0.43695,2.78857 0.61334,4.22131c0.17935,1.45679 0.3349,2.94336 0.45331,4.4613c0.24411,3.12903 0.30103,4.74731 0.35794,6.3905c0.05753,1.66052 0.09207,3.3302 0.11465,5c0.02246,1.66077 0.03125,3.30371 0.03467,4.92004c0.00659,3.11694 0.00394,4.60205 0,6.03735c-0.00381,1.38904 -0.01178,2.73547 -0.03467,4.0426c-0.02228,1.27185 -0.0524,2.51196 -0.11465,3.72266c-0.12097,2.35278 -0.23422,3.49927 -0.35556,4.62939c-0.11996,1.11755 -0.26288,2.22168 -0.41867,3.31458c-0.15475,1.08557 -0.32397,2.16284 -0.49866,3.23474c-0.34814,2.13647 -0.52893,3.20215 -0.71112,4.26428c-0.18112,1.05579 -0.36615,2.1012 -0.56799,3.13062c-0.19885,1.01404 -0.40408,2.00806 -0.64801,2.9707c-0.46936,1.85217 -0.76367,2.72046 -1.06903,3.55798c-0.29938,0.82117 -0.63095,1.61816 -0.98666,2.39722c-0.35547,0.77844 -0.73911,1.54883 -1.14667,2.31738c-0.83786,1.57983 -1.30283,2.3811 -1.77304,3.19763c-0.4744,0.82373 -0.95834,1.6427 -1.45065,2.448c-0.48438,0.79236 -0.96451,1.56055 -1.45068,2.28796c-0.90393,1.35242 -1.34842,1.94348 -1.77539,2.48425c-0.39902,0.50537 -0.79202,0.96387 -1.18134,1.37598c-0.36731,0.38892 -0.73199,0.74304 -1.10135,1.05591c-0.69855,0.5918 -1.06677,0.83484 -1.42221,1.07617c-0.34805,0.23633 -0.69586,0.45776 -1.03201,0.68274c-0.32993,0.22083 -0.65524,0.43811 -0.952,0.68262c-0.58447,0.48157 -0.83148,0.77185 -1.06665,1.06665c-0.23489,0.29443 -0.44641,0.60474 -0.64801,0.91736c-0.19897,0.30859 -0.38211,0.61902 -0.56799,0.91736c-0.35324,0.56702 -0.53217,0.82483 -0.7135,1.06433c-0.17441,0.23035 -0.35553,0.44324 -0.53333,0.64795l-0.17776,0.1958l-0.1778,0.18884l-0.17776,0.18335"/>
  <path fill="none" stroke="#000000" stroke-width="5" stroke-dasharray="null" stroke-linejoin="null" stroke-linecap="null" id="svg_42" d="m250.66667,1063.69556c1.024,-2.13098 1.60953,-2.5166 2.42726,-2.78052c1.01163,-0.32654 2.31235,-0.49011 3.06311,-0.55908c0.83743,-0.07703 1.78348,-0.12122 2.85333,-0.15198c1.21164,-0.03479 2.58368,-0.0481 4.13333,-0.05603c1.74518,-0.00903 5.89334,-0.00793 8.33008,-0.00793c2.69272,0 5.64859,0 8.87466,0c3.50339,0 7.29126,0 11.37067,0c4.37808,0 14.05865,0 19.36475,0c5.56918,0 11.34457,0 17.26932,0c6.01718,0 12.06995,0 18.10135,0c5.95319,0 17.39731,0 22.78696,0c5.15851,0 10.1037,0 14.85333,0c4.57184,0 8.9837,0 13.25333,0c4.1452,0 12.13333,0 16.00861,0c3.80237,0 7.53006,0 11.18134,0c3.57303,0 7.06607,0 10.47733,0c3.3277,0 9.72534,0 12.79141,0c2.97363,0 5.85126,0 8.62933,0c2.67496,0 5.24326,0 7.70132,0c2.3443,0 6.67734,0 8.66016,0c1.86191,0 3.60651,0 5.23734,0c1.52057,0 2.93451,0 4.24533,0l1.21124,0"/>
  <line fill="none" stroke="#000000" stroke-width="5" stroke-dasharray="null" stroke-linejoin="null" stroke-linecap="null" x1="179.55556" y1="1330.36218" x2="318.22222" y2="1385.47329" id="svg_43"/>
  <line fill="none" stroke="#000000" stroke-width="5" stroke-dasharray="null" stroke-linejoin="null" stroke-linecap="null" x1="178.23901" y1="1293.054" x2="149.93713" y2="1120.72695" id="svg_44"/>
  <line fill="none" stroke="#000000" stroke-width="5" stroke-dasharray="null" stroke-linejoin="null" stroke-linecap="null" x1="205.91197" y1="1330.16092" x2="305.91197" y2="1244.62632" id="svg_45"/>
 </g>
  
</svg>